# xmcd
#
# Track frame offsets: 
#        150
#        24652
#        45081
#        66759
#        89891
#        109488
#        127499
#        149540
#        164658
#        183087
#        203036
#        220185
#        242526
#
# Disc length: 3492 seconds
#
# Revision: 1
# Processed by: cddbd v1.5.2PL0 Copyright (c) Steve Scherf et al.
# Submitted via: ExactAudioCopy v1.0b3
#
DISCID=c60da20d
DTITLE=李思思 - 君再来
DYEAR=1900
DGENRE=Club-House
TTITLE0=君在前哨
TTITLE1=原乡人
TTITLE2=恩爱夫妻
TTITLE3=人面桃花
TTITLE4=小村之恋
TTITLE5=千言万语
TTITLE6=江水要比河水长
TTITLE7=告诉你告诉我
TTITLE8=雪中莲
TTITLE9=梦向何处寻
TTITLE10=奈何
TTITLE11=云深情也深
TTITLE12=多少黎明多少黄昏
EXTD=
EXTT0=
EXTT1=
EXTT2=
EXTT3=
EXTT4=
EXTT5=
EXTT6=
EXTT7=
EXTT8=
EXTT9=
EXTT10=
EXTT11=
EXTT12=
PLAYORDER=
